<svg width="27" height="27" viewBox="0 0 27 27" fill="none" xmlns="http://www.w3.org/2000/svg">
<path d="M5.62514 2.24975H7.87516V5.62478H5.62514V2.24975ZM10.1252 2.24975H12.3752V5.62478H10.1252V2.24975ZM14.6252 2.24975H16.8752V5.62478H14.6252V2.24975ZM21.3753 10.1248H19.1253V7.8748H3.37512V20.2499C3.37512 22.1107 4.88939 23.6249 6.75015 23.6249H15.7502C17.611 23.6249 19.1253 22.1107 19.1253 20.2499H21.3753C22.6162 20.2499 23.6253 19.2408 23.6253 17.9999V12.3748C23.6253 11.134 22.6162 10.1248 21.3753 10.1248ZM16.8752 20.2499C16.8752 20.5483 16.7567 20.8344 16.5457 21.0454C16.3348 21.2564 16.0486 21.3749 15.7502 21.3749H6.75015C6.45178 21.3749 6.16563 21.2564 5.95465 21.0454C5.74367 20.8344 5.62514 20.5483 5.62514 20.2499V10.1248H16.8752V20.2499ZM19.1253 17.9999V12.3748H21.3753L21.3775 17.9999H19.1253Z" fill="#73D0B9"/>
</svg>
