<svg width="27" height="27" viewBox="0 0 27 27" fill="none" xmlns="http://www.w3.org/2000/svg">
<path d="M18.6417 24.7503C18.9405 24.7521 19.2366 24.6943 19.5128 24.5803C19.7891 24.4663 20.0398 24.2985 20.2504 24.0866L23.2992 21.0378C23.5088 20.827 23.6264 20.5419 23.6264 20.2447C23.6264 19.9475 23.5088 19.6623 23.2992 19.4515L18.7992 14.9515C18.5884 14.742 18.3033 14.6244 18.0061 14.6244C17.7088 14.6244 17.4237 14.742 17.2129 14.9515L15.4129 16.7403C14.1667 16.408 13.0125 15.7963 12.0379 14.9515C11.1954 13.9753 10.5839 12.8217 10.2491 11.5765L12.0379 9.77645C12.2474 9.56567 12.365 9.28053 12.365 8.98332C12.365 8.68611 12.2474 8.40097 12.0379 8.19019L7.53783 3.69015C7.32705 3.48061 7.04191 3.363 6.7447 3.363C6.44749 3.363 6.16235 3.48061 5.95157 3.69015L2.91404 6.75018C2.70212 6.96083 2.53429 7.21157 2.42033 7.48779C2.30636 7.764 2.24856 8.06015 2.25028 8.35894C2.35235 12.6816 4.07963 16.807 7.08783 19.9128C10.1937 22.921 14.3191 24.6483 18.6417 24.7503ZM6.75033 6.08642L9.6641 9.0002L8.21284 10.4515C8.07539 10.5802 7.97246 10.7414 7.91349 10.9203C7.85452 11.0992 7.8414 11.29 7.87534 11.4752C8.29583 13.3544 9.1861 15.0962 10.4629 16.5378C11.9033 17.8162 13.6455 18.7067 15.5254 19.1253C15.7079 19.1634 15.8969 19.1556 16.0756 19.1026C16.2543 19.0496 16.417 18.953 16.5492 18.8215L18.0004 17.3365L20.9142 20.2503L18.6642 22.5003C14.9333 22.4043 11.3736 20.9153 8.68534 18.3265C6.08985 15.6372 4.59662 12.0727 4.5003 8.33644L6.75033 6.08642ZM22.5005 12.3752H24.7505C24.7797 11.0376 24.5377 9.70789 24.0392 8.46627C23.5407 7.22466 22.796 6.09682 21.8499 5.15074C20.9038 4.20467 19.776 3.45993 18.5344 2.96143C17.2927 2.46292 15.963 2.22096 14.6254 2.25014V4.50016C15.6693 4.46405 16.7095 4.64304 17.6813 5.02602C18.653 5.409 19.5357 5.98778 20.2743 6.72637C21.0128 7.46496 21.5916 8.34758 21.9746 9.31937C22.3576 10.2912 22.5366 11.3313 22.5005 12.3752Z" fill="#0091BD"/>
<path d="M14.6249 9.00027C16.9874 9.00027 17.9999 10.0128 17.9999 12.3753H20.2499C20.2499 8.75276 18.2474 6.75025 14.6249 6.75025V9.00027Z" fill="#0091BD"/>
</svg>
