<svg width="27" height="27" viewBox="0 0 27 27" fill="none" xmlns="http://www.w3.org/2000/svg">
<path d="M13.4995 6.75021C17.4786 6.75021 21.1911 8.27233 23.9541 11.0353L25.5448 9.44458C22.3577 6.25633 18.0793 4.50021 13.4995 4.50021C8.91958 4.50133 4.64121 6.25633 1.45408 9.44458L3.04483 11.0353C5.80783 8.27233 9.52033 6.75021 13.4995 6.75021ZM19.8793 16.0956C16.4211 12.6373 10.5778 12.6373 7.11958 16.0956L8.71033 17.6863C11.3057 15.091 15.6932 15.091 18.2886 17.6863L19.8793 16.0956Z" fill="#025BCF"/>
<path d="M22.9915 12.7047C17.848 7.55899 9.15284 7.55899 4.00934 12.7047L5.60009 14.2955C9.88297 10.0126 17.1178 10.0126 21.4007 14.2955L22.9915 12.7047Z" fill="#025BCF"/>
<path d="M13.4997 22.5001C14.7423 22.5001 15.7496 21.4927 15.7496 20.2501C15.7496 19.0074 14.7423 18.0001 13.4997 18.0001C12.257 18.0001 11.2497 19.0074 11.2497 20.2501C11.2497 21.4927 12.257 22.5001 13.4997 22.5001Z" fill="#025BCF"/>
</svg>
