<svg width="28" height="28" viewBox="0 0 28 28" fill="none" xmlns="http://www.w3.org/2000/svg">
<path d="M13.9998 4.66699C14.6442 4.66699 15.1665 5.18933 15.1665 5.83366V12.8337H22.1665C22.8108 12.8337 23.3332 13.356 23.3332 14.0003C23.3332 14.6447 22.8108 15.167 22.1665 15.167H15.1665V22.167C15.1665 22.8113 14.6442 23.3337 13.9998 23.3337C13.3555 23.3337 12.8332 22.8113 12.8332 22.167V15.167H5.83317C5.18884 15.167 4.6665 14.6447 4.6665 14.0003C4.6665 13.356 5.18884 12.8337 5.83317 12.8337H12.8332V5.83366C12.8332 5.18933 13.3555 4.66699 13.9998 4.66699Z" fill="white"/>
</svg>
