<svg width="112" height="17" viewBox="0 0 112 17" fill="none" xmlns="http://www.w3.org/2000/svg">
<path d="M17.1418 7.71619L13.6044 10.8034L14.6641 15.3996C14.7201 15.6399 14.7041 15.8914 14.6181 16.1226C14.532 16.3538 14.3797 16.5546 14.1801 16.6997C13.9806 16.8448 13.7427 16.9279 13.4962 16.9386C13.2497 16.9492 13.0055 16.887 12.7942 16.7596L8.78542 14.3282L4.78528 16.7596C4.57396 16.887 4.32978 16.9492 4.08328 16.9386C3.83677 16.9279 3.59888 16.8448 3.39935 16.6997C3.19981 16.5546 3.04749 16.3538 2.96141 16.1226C2.87534 15.8914 2.85934 15.6399 2.91541 15.3996L3.97349 10.8081L0.435327 7.71619C0.24819 7.55479 0.11287 7.34174 0.0463374 7.10374C-0.0201953 6.86574 -0.0149794 6.61339 0.0613309 6.37835C0.137641 6.1433 0.281649 5.93602 0.475295 5.78249C0.668942 5.62896 0.903606 5.53602 1.14986 5.51533L5.81355 5.11139L7.63401 0.769282C7.72908 0.541444 7.88943 0.346826 8.09488 0.209935C8.30033 0.0730442 8.54168 0 8.78856 0C9.03544 0 9.27679 0.0730442 9.48224 0.209935C9.68769 0.346826 9.84804 0.541444 9.94311 0.769282L11.7691 5.11139L16.4312 5.51533C16.6774 5.53602 16.9121 5.62896 17.1057 5.78249C17.2994 5.93602 17.4434 6.1433 17.5197 6.37835C17.596 6.61339 17.6012 6.86574 17.5347 7.10374C17.4682 7.34174 17.3329 7.55479 17.1457 7.71619H17.1418Z" fill="#FFB700"/>
<path d="M40.7465 7.71619L37.2092 10.8034L38.2688 15.3996C38.3249 15.6399 38.3089 15.8914 38.2228 16.1226C38.1367 16.3538 37.9844 16.5546 37.7849 16.6997C37.5853 16.8448 37.3474 16.9279 37.1009 16.9386C36.8544 16.9492 36.6103 16.887 36.3989 16.7596L32.3902 14.3282L28.39 16.7596C28.1787 16.887 27.9345 16.9492 27.688 16.9386C27.4415 16.9279 27.2036 16.8448 27.0041 16.6997C26.8046 16.5546 26.6522 16.3538 26.5662 16.1226C26.4801 15.8914 26.4641 15.6399 26.5202 15.3996L27.5782 10.8081L24.0401 7.71619C23.8529 7.55479 23.7176 7.34174 23.6511 7.10374C23.5846 6.86574 23.5898 6.61339 23.6661 6.37835C23.7424 6.1433 23.8864 5.93602 24.08 5.78249C24.2737 5.62896 24.5084 5.53602 24.7546 5.51533L29.4183 5.11139L31.2388 0.769282C31.3338 0.541444 31.4942 0.346826 31.6996 0.209935C31.9051 0.0730442 32.1464 0 32.3933 0C32.6402 0 32.8815 0.0730442 33.087 0.209935C33.2924 0.346826 33.4528 0.541444 33.5479 0.769282L35.3738 5.11139L40.0359 5.51533C40.2822 5.53602 40.5168 5.62896 40.7105 5.78249C40.9041 5.93602 41.0481 6.1433 41.1245 6.37835C41.2008 6.61339 41.206 6.86574 41.1395 7.10374C41.0729 7.34174 40.9376 7.55479 40.7505 7.71619H40.7465Z" fill="#FFB700"/>
<path d="M64.3513 7.71619L60.8139 10.8034L61.8736 15.3996C61.9296 15.6399 61.9136 15.8914 61.8276 16.1226C61.7415 16.3538 61.5892 16.5546 61.3896 16.6997C61.1901 16.8448 60.9522 16.9279 60.7057 16.9386C60.4592 16.9492 60.215 16.887 60.0037 16.7596L55.9949 14.3282L51.9948 16.7596C51.7835 16.887 51.5393 16.9492 51.2928 16.9386C51.0463 16.9279 50.8084 16.8448 50.6088 16.6997C50.4093 16.5546 50.257 16.3538 50.1709 16.1226C50.0848 15.8914 50.0688 15.6399 50.1249 15.3996L51.183 10.8081L47.6448 7.71619C47.4577 7.55479 47.3224 7.34174 47.2558 7.10374C47.1893 6.86574 47.1945 6.61339 47.2708 6.37835C47.3471 6.1433 47.4911 5.93602 47.6848 5.78249C47.8784 5.62896 48.1131 5.53602 48.3594 5.51533L53.023 5.11139L54.8435 0.769282C54.9386 0.541444 55.0989 0.346826 55.3044 0.209935C55.5098 0.0730442 55.7512 0 55.9981 0C56.2449 0 56.4863 0.0730442 56.6917 0.209935C56.8972 0.346826 57.0575 0.541444 57.1526 0.769282L58.9786 5.11139L63.6407 5.51533C63.8869 5.53602 64.1216 5.62896 64.3152 5.78249C64.5089 5.93602 64.6529 6.1433 64.7292 6.37835C64.8055 6.61339 64.8107 6.86574 64.7442 7.10374C64.6777 7.34174 64.5423 7.55479 64.3552 7.71619H64.3513Z" fill="#FFB700"/>
<path d="M87.956 7.71619L84.4187 10.8034L85.4783 15.3996C85.5344 15.6399 85.5184 15.8914 85.4323 16.1226C85.3462 16.3538 85.1939 16.5546 84.9944 16.6997C84.7948 16.8448 84.5569 16.9279 84.3104 16.9386C84.0639 16.9492 83.8198 16.887 83.6084 16.7596L79.5997 14.3282L75.5995 16.7596C75.3882 16.887 75.144 16.9492 74.8975 16.9386C74.651 16.9279 74.4131 16.8448 74.2136 16.6997C74.0141 16.5546 73.8617 16.3538 73.7757 16.1226C73.6896 15.8914 73.6736 15.6399 73.7297 15.3996L74.7877 10.8081L71.2496 7.71619C71.0624 7.55479 70.9271 7.34174 70.8606 7.10374C70.794 6.86574 70.7993 6.61339 70.8756 6.37835C70.9519 6.1433 71.0959 5.93602 71.2895 5.78249C71.4832 5.62896 71.7179 5.53602 71.9641 5.51533L76.6278 5.11139L78.4483 0.769282C78.5433 0.541444 78.7037 0.346826 78.9091 0.209935C79.1146 0.0730442 79.3559 0 79.6028 0C79.8497 0 80.091 0.0730442 80.2965 0.209935C80.5019 0.346826 80.6623 0.541444 80.7574 0.769282L82.5833 5.11139L87.2454 5.51533C87.4917 5.53602 87.7263 5.62896 87.92 5.78249C88.1136 5.93602 88.2576 6.1433 88.334 6.37835C88.4103 6.61339 88.4155 6.86574 88.3489 7.10374C88.2824 7.34174 88.1471 7.55479 87.96 7.71619H87.956Z" fill="#FFB700"/>
<path d="M111.561 7.71619L108.023 10.8034L109.083 15.3996C109.139 15.6399 109.123 15.8914 109.037 16.1226C108.951 16.3538 108.799 16.5546 108.599 16.6997C108.4 16.8448 108.162 16.9279 107.915 16.9386C107.669 16.9492 107.425 16.887 107.213 16.7596L103.204 14.3282L99.2043 16.7596C98.9929 16.887 98.7488 16.9492 98.5023 16.9386C98.2558 16.9279 98.0179 16.8448 97.8183 16.6997C97.6188 16.5546 97.4665 16.3538 97.3804 16.1226C97.2943 15.8914 97.2783 15.6399 97.3344 15.3996L98.3925 10.8081L94.8543 7.71619C94.6672 7.55479 94.5319 7.34174 94.4653 7.10374C94.3988 6.86574 94.404 6.61339 94.4803 6.37835C94.5566 6.1433 94.7006 5.93602 94.8943 5.78249C95.0879 5.62896 95.3226 5.53602 95.5689 5.51533L100.233 5.11139L102.053 0.769282C102.148 0.541444 102.308 0.346826 102.514 0.209935C102.719 0.0730442 102.961 0 103.208 0C103.454 0 103.696 0.0730442 103.901 0.209935C104.107 0.346826 104.267 0.541444 104.362 0.769282L106.188 5.11139L110.85 5.51533C111.096 5.53602 111.331 5.62896 111.525 5.78249C111.718 5.93602 111.862 6.1433 111.939 6.37835C112.015 6.61339 112.02 6.86574 111.954 7.10374C111.887 7.34174 111.752 7.55479 111.565 7.71619H111.561Z" fill="#FFB700"/>
</svg>
