<svg width="40" height="40" viewBox="0 0 40 40" fill="none" xmlns="http://www.w3.org/2000/svg">
<g clip-path="url(#clip0_2121_1633)">
<path d="M29.351 0H10.667C3.857 0 0 3.858 0 10.667V29.333C0 36.143 3.858 40 10.667 40H29.35C36.16 40 40 36.142 40 29.333V10.667C40 3.857 36.16 0 29.351 0Z" fill="white"/>
<path d="M10.738 14.738C9.83098 14.738 9.08398 15.485 9.08398 16.409V30.151C9.08398 30.5919 9.25914 31.0148 9.57092 31.3266C9.8827 31.6383 10.3056 31.8135 10.7465 31.8135C11.1874 31.8135 11.6103 31.6383 11.922 31.3266C12.2338 31.0148 12.409 30.5919 12.409 30.151V16.41C12.4091 16.1905 12.366 15.9732 12.2821 15.7704C12.1981 15.5676 12.075 15.3833 11.9199 15.2281C11.7647 15.0729 11.5804 14.9499 11.3776 14.8659C11.1748 14.782 10.9575 14.7389 10.738 14.739M20.071 8.177C19.165 8.177 18.418 8.924 18.418 9.848V30.15C18.418 30.5908 18.5931 31.0135 18.9048 31.3252C19.2165 31.6369 19.6392 31.812 20.08 31.812C20.5208 31.812 20.9435 31.6369 21.2552 31.3252C21.5669 31.0135 21.742 30.5908 21.742 30.15V9.849C21.742 9.62969 21.6988 9.41253 21.6149 9.20992C21.5309 9.00731 21.4079 8.82321 21.2529 8.66813C21.0978 8.51306 20.9137 8.39005 20.7111 8.30612C20.5085 8.2222 20.2913 8.179 20.072 8.179M29.28 21.991C29.0606 21.991 28.8434 22.0342 28.6407 22.1182C28.438 22.2022 28.2538 22.3253 28.0988 22.4805C27.9437 22.6357 27.8207 22.8199 27.7368 23.0226C27.653 23.2253 27.6099 23.4426 27.61 23.662V30.152C27.61 30.5928 27.7851 31.0155 28.0968 31.3272C28.4085 31.6389 28.8312 31.814 29.272 31.814C29.7128 31.814 30.1355 31.6389 30.4472 31.3272C30.7589 31.0155 30.934 30.5928 30.934 30.152V23.662C30.934 22.738 30.187 21.992 29.28 21.992" fill="#0091BD"/>
</g>
<defs>
<clipPath id="clip0_2121_1633">
<rect width="40" height="40" fill="white"/>
</clipPath>
</defs>
</svg>
