<svg width="34" height="40" viewBox="0 0 34 40" fill="none" xmlns="http://www.w3.org/2000/svg">
<g clip-path="url(#clip0_2121_1722)">
<path d="M30.618 14.042C29.715 14.042 28.518 14.022 27.029 14.022C23.397 14.022 20.411 11.016 20.411 7.35V0.918C20.4119 0.798281 20.3892 0.679555 20.3442 0.568609C20.2992 0.457663 20.2328 0.356674 20.1488 0.271416C20.0647 0.186158 19.9647 0.118303 19.8544 0.0717318C19.7441 0.0251601 19.6257 0.000784957 19.506 0L8.927 0C3.99 0 0 4.052 0 9.018V30.568C0 35.778 4.18 40 9.34 40H25.093C30.012 40 34 35.974 34 31.004V14.942C34.0013 14.8223 33.9789 14.7035 33.934 14.5924C33.8891 14.4814 33.8227 14.3804 33.7386 14.2952C33.6544 14.2101 33.5542 14.1424 33.4437 14.0962C33.3333 14.05 33.2147 14.0261 33.095 14.026C32.249 14.032 31.235 14.042 30.618 14.042Z" fill="white"/>
<path d="M25.1679 1.13523C24.5699 0.513228 23.5259 0.941228 23.5259 1.80323V7.07723C23.5259 9.28923 25.3479 11.1092 27.5599 11.1092C28.9539 11.1252 30.8899 11.1292 32.5339 11.1252C32.721 11.125 32.9039 11.0698 33.0599 10.9665C33.2159 10.8632 33.338 10.7162 33.4111 10.544C33.4842 10.3718 33.5051 10.1819 33.4711 9.99787C33.4371 9.81388 33.3497 9.64395 33.2199 9.50923C31.1099 7.31523 27.3319 3.38323 25.1679 1.13523Z" fill="#0091BD"/>
<path fill-rule="evenodd" clip-rule="evenodd" d="M10.9481 18.7749H17.7181C17.9182 18.7822 18.1178 18.7492 18.3049 18.6776C18.4919 18.6061 18.6626 18.4976 18.8068 18.3586C18.951 18.2196 19.0657 18.053 19.144 17.8687C19.2223 17.6844 19.2627 17.4862 19.2627 17.2859C19.2627 17.0856 19.2223 16.8874 19.144 16.7031C19.0657 16.5188 18.951 16.3522 18.8068 16.2132C18.6626 16.0742 18.4919 15.9657 18.3049 15.8942C18.1178 15.8226 17.9182 15.7896 17.7181 15.7969H10.9481C10.5627 15.811 10.1977 15.9741 9.92998 16.2518C9.66228 16.5295 9.5127 16.9002 9.5127 17.2859C9.5127 17.6716 9.66228 18.0423 9.92998 18.32C10.1977 18.5977 10.5627 18.7608 10.9481 18.7749ZM10.9481 28.7639H21.8361C22.0362 28.7712 22.2358 28.7382 22.4229 28.6666C22.6099 28.5951 22.7806 28.4866 22.9248 28.3476C23.069 28.2086 23.1837 28.042 23.262 27.8577C23.3403 27.6734 23.3807 27.4752 23.3807 27.2749C23.3807 27.0746 23.3403 26.8764 23.262 26.6921C23.1837 26.5078 23.069 26.3412 22.9248 26.2022C22.7806 26.0632 22.6099 25.9547 22.4229 25.8832C22.2358 25.8116 22.0362 25.7786 21.8361 25.7859H10.9481C10.5627 25.8 10.1977 25.9631 9.92998 26.2408C9.66228 26.5185 9.5127 26.8892 9.5127 27.2749C9.5127 27.6606 9.66228 28.0313 9.92998 28.309C10.1977 28.5867 10.5627 28.7498 10.9481 28.7639Z" fill="#0091BD"/>
</g>
<defs>
<clipPath id="clip0_2121_1722">
<rect width="34" height="40" fill="white"/>
</clipPath>
</defs>
</svg>
