<svg width="40" height="34" viewBox="0 0 40 34" fill="none" xmlns="http://www.w3.org/2000/svg">
<g clip-path="url(#clip0_2121_1530)">
<path d="M19.9064 21.8737C13.6341 21.8737 8.34131 23.0433 8.34131 27.5587C8.34131 32.076 13.6681 33.2058 19.9073 33.2058C26.1796 33.2058 31.4715 32.0352 31.4715 27.5198C31.4715 23.0025 26.1447 21.8737 19.9064 21.8737Z" fill="white"/>
<path d="M19.9073 17.5719C24.1541 17.5719 27.5609 13.6627 27.5609 8.78595C27.5609 3.90821 24.1549 0 19.9064 0C15.6605 0 12.2554 3.90821 12.2554 8.78595C12.2554 13.6627 15.6596 17.5719 19.9073 17.5719ZM36.5235 10.8319C37.6222 5.89778 34.4009 1.46692 30.2979 1.46692C29.852 1.46692 29.4256 1.52229 29.0086 1.61749C28.9532 1.63304 28.892 1.66412 28.8588 1.72047C28.8213 1.79139 28.8494 1.88659 28.8903 1.94876C30.1581 3.99346 30.8364 6.43829 30.8307 8.94333C30.8384 11.3398 30.2151 13.6835 29.0418 15.6707C29.0151 15.7165 28.9989 15.7691 28.9946 15.8238C28.9904 15.8785 28.9982 15.9336 29.0174 15.9839C29.0367 16.0343 29.0666 16.0784 29.1046 16.1121C29.1426 16.1458 29.1874 16.1681 29.2349 16.1769C29.5218 16.2352 29.8145 16.2643 30.1141 16.274C33.1013 16.3644 35.7822 14.1562 36.5235 10.8319Z" fill="#0091BD"/>
<path d="M39.6538 22.4489C39.1066 21.1102 37.7857 20.1931 35.7789 19.7424C34.8317 19.4772 32.2674 19.1032 29.8828 19.1537C29.8462 19.1595 29.8266 19.1877 29.8232 19.2061C29.8189 19.2324 29.8283 19.2771 29.876 19.3052C30.9781 19.9308 35.2377 22.6539 34.7032 28.3982C34.6802 28.6459 34.8538 28.8616 35.0708 28.8237C36.1194 28.6517 38.8164 27.9863 39.6538 25.9141C39.8821 25.3737 40.0006 24.7815 40.0006 24.1815C40.0006 23.5816 39.8821 22.9893 39.6538 22.4489Z" fill="white"/>
<path d="M10.9898 1.61847C10.5745 1.52132 10.1472 1.46692 9.70043 1.46692C5.5983 1.46692 2.37617 5.89778 3.4766 10.8319C4.21617 14.1572 6.89788 16.3644 9.88511 16.275C10.1838 16.2653 10.4783 16.2342 10.7634 16.1779C10.811 16.1692 10.8559 16.147 10.894 16.1133C10.9321 16.0797 10.9622 16.0356 10.9815 15.9853C11.0008 15.9349 11.0087 15.8798 11.0045 15.825C11.0003 15.7702 10.9841 15.7175 10.9574 15.6717C9.78433 13.6844 9.1611 11.3407 9.16851 8.94431C9.16293 6.43898 9.84181 3.994 11.1106 1.94974C11.1498 1.88756 11.1787 1.79236 11.1396 1.72144C11.1072 1.66316 11.0468 1.63401 10.9898 1.61847Z" fill="#0091BD"/>
<path d="M4.22123 19.7414C2.21357 20.1922 0.895268 21.1102 0.348034 22.4479C0.11898 22.9884 0 23.5811 0 24.1815C0 24.7819 0.11898 25.3746 0.348034 25.9151C1.18463 27.9862 3.8825 28.6536 4.93101 28.8236C5.14718 28.8606 5.31995 28.6478 5.29697 28.3962C4.7608 22.6548 9.02208 19.9328 10.1259 19.3062C10.171 19.277 10.1812 19.2333 10.1761 19.2051C10.1727 19.1857 10.1548 19.1585 10.1191 19.1546C7.73271 19.1022 5.17016 19.4762 4.22123 19.7414Z" fill="white"/>
</g>
<defs>
<clipPath id="clip0_2121_1530">
<rect width="40" height="34" fill="white"/>
</clipPath>
</defs>
</svg>
