<svg width="40" height="36" viewBox="0 0 40 36" fill="none" xmlns="http://www.w3.org/2000/svg">
<g clip-path="url(#clip0_2121_1745)">
<path d="M38.5 20.953C36.858 20.953 35.522 19.629 35.522 18.002C35.522 16.373 36.858 15.049 38.5 15.049C38.898 15.049 39.28 14.893 39.56 14.615C39.842 14.335 40 13.957 40 13.563L39.998 8.208C39.998 3.682 36.28 0 31.712 0H8.288C3.72 0 0.002 3.682 0.002 8.208L0 13.735C0 14.13 0.158 14.508 0.44 14.788C0.72 15.065 1.102 15.222 1.5 15.222C3.198 15.222 4.478 16.417 4.478 18.002C4.478 19.629 3.142 20.952 1.5 20.952C0.672 20.952 0 21.619 0 22.439V27.789C0 32.317 3.716 36 8.286 36H31.714C36.284 36 40 32.316 40 27.79V22.44C40 21.619 39.328 20.953 38.5 20.953Z" fill="white"/>
<path d="M26.8602 17.1769L24.5032 19.4729L25.0612 22.7189C25.1094 22.9915 25.0794 23.2722 24.9746 23.5285C24.8699 23.7848 24.6946 24.0061 24.4692 24.1669C24.2464 24.3313 23.9814 24.4289 23.7052 24.4484C23.4289 24.4678 23.1529 24.4084 22.9092 24.2769L19.9992 22.7469L17.0832 24.2789C16.8721 24.3917 16.6366 24.4515 16.3972 24.4529C16.0912 24.4529 15.7892 24.3569 15.5292 24.1689C15.3044 24.0072 15.1298 23.7853 15.0255 23.5288C14.9211 23.2723 14.8912 22.9916 14.9392 22.7189L15.4952 19.4729L13.1372 17.1769C12.938 16.9845 12.7972 16.7397 12.7311 16.4708C12.6649 16.2019 12.676 15.9197 12.7632 15.6569C12.9412 15.1169 13.4012 14.7329 13.9632 14.6529L17.2152 14.1789L18.6732 11.2249C18.7952 10.9774 18.9841 10.769 19.2184 10.6234C19.4528 10.4777 19.7233 10.4007 19.9992 10.4009H20.0032C20.2791 10.4007 20.5495 10.4781 20.7836 10.6241C21.0176 10.7702 21.206 10.979 21.3272 11.2269L22.7852 14.1789L26.0432 14.6549C26.3161 14.6927 26.5727 14.8068 26.7836 14.9841C26.9945 15.1614 27.151 15.3946 27.2352 15.6569C27.3233 15.9196 27.335 16.202 27.2688 16.4711C27.2025 16.7403 27.0602 16.985 26.8602 17.1769Z" fill="#0091BD"/>
</g>
<defs>
<clipPath id="clip0_2121_1745">
<rect width="40" height="36" fill="white"/>
</clipPath>
</defs>
</svg>
