<svg width="40" height="35" viewBox="0 0 40 35" fill="none" xmlns="http://www.w3.org/2000/svg">
<path d="M2.71329 26.7613V33.244C2.71329 33.6383 3.03328 33.9677 3.43613 33.9677H8.44934C8.64114 33.9675 8.82499 33.8911 8.96052 33.7554C9.09605 33.6198 9.17218 33.4358 9.17218 33.244V21.8392L5.53131 25.4795C4.77714 26.2329 3.7759 26.6882 2.71234 26.7613H2.71329ZM11.6702 21.7573V33.244C11.6702 33.6383 11.9902 33.9677 12.3931 33.9677H17.4063C17.5981 33.9675 17.7819 33.8911 17.9174 33.7554C18.053 33.6198 18.1291 33.4358 18.1291 33.244V26.4823C16.9955 26.4625 15.914 26.0029 15.113 25.2005L11.6702 21.7573ZM20.6271 25.7671V33.244C20.6271 33.6383 20.9481 33.9677 21.3509 33.9677H26.3632C26.5551 33.9677 26.7392 33.8915 26.875 33.7558C27.0107 33.6201 27.087 33.436 27.087 33.244V19.4481L21.3424 25.192C21.1254 25.4086 20.885 25.6014 20.6271 25.7671ZM35.5592 10.9694L29.585 16.9428V33.245C29.5855 33.4366 29.662 33.6202 29.7977 33.7555C29.9334 33.8908 30.1172 33.9668 30.3088 33.9668H35.3211C35.5129 33.9668 35.6968 33.8907 35.8325 33.7552C35.9682 33.6197 36.0446 33.4358 36.0449 33.244V11.4208C35.8801 11.2808 35.7563 11.158 35.6658 11.0761L35.5592 10.9685V10.9694Z" fill="white"/>
<path d="M39.6599 0.386606C39.4218 0.131408 39.0599 0 38.5989 0H38.4675C36.1342 0.10665 33.8086 0.22187 31.4743 0.32852C31.162 0.344708 30.7353 0.361848 30.3982 0.697986C30.2902 0.806948 30.2036 0.935173 30.1429 1.07602C29.7982 1.82448 30.2829 2.30916 30.5134 2.53865L31.0963 3.13094C31.4991 3.54135 31.9105 3.95176 32.321 4.35456L18.2194 18.4638L11.8834 12.1286C11.6963 11.9411 11.4741 11.7924 11.2294 11.691C10.9848 11.5895 10.7226 11.5373 10.4577 11.5373C10.1929 11.5373 9.93061 11.5895 9.68598 11.691C9.44134 11.7924 9.21912 11.9411 9.03203 12.1286L0.592231 20.5587C0.404515 20.7457 0.255572 20.9679 0.153943 21.2126C0.0523145 21.4573 0 21.7197 0 21.9847C0 22.2496 0.0523145 22.512 0.153943 22.7567C0.255572 23.0014 0.404515 23.2236 0.592231 23.4106L0.970317 23.7877C1.15741 23.9751 1.37963 24.1239 1.62427 24.2253C1.8689 24.3268 2.13115 24.379 2.396 24.379C2.66084 24.379 2.92309 24.3268 3.16773 24.2253C3.41236 24.1239 3.63459 23.9751 3.82168 23.7877L10.4539 17.1573L16.7899 23.4925C17.168 23.8706 17.6766 24.0839 18.2194 24.0839C18.7557 24.0835 19.27 23.8709 19.6499 23.4925L35.559 7.58358L37.359 9.37473C37.5723 9.58898 37.8685 9.88417 38.3208 9.88417C38.5094 9.88417 38.698 9.83561 38.8951 9.728C39.0265 9.65468 39.1418 9.57279 39.2399 9.47376C39.5941 9.12048 39.6589 8.66817 39.676 8.31489C39.7418 6.8037 39.816 5.29155 39.8894 3.77179L39.996 1.49596C40.0208 1.01889 39.9141 0.64847 39.6599 0.386606Z" fill="#0091BD"/>
</svg>
