<svg width="40" height="36" viewBox="0 0 40 36" fill="none" xmlns="http://www.w3.org/2000/svg">
<path fill-rule="evenodd" clip-rule="evenodd" d="M39.993 10.75H31.523C27.583 10.757 24.389 13.87 24.383 17.713C24.377 21.565 27.573 24.692 31.523 24.697H40V25.309C40 32.027 35.927 35.999 29.035 35.999H10.967C4.073 36 0 32.028 0 25.31V10.676C0 3.957 4.073 0 10.967 0H29.027C35.92 0 39.993 3.957 39.993 10.676V10.75ZM9.479 10.735H20.78C21.625 10.731 22.307 10.06 22.304 9.235C22.3 8.412 21.611 7.746 20.766 7.75H9.48C8.641 7.753 7.96 8.417 7.957 9.237C7.953 10.06 8.635 10.731 9.479 10.735Z" fill="white"/>
<path d="M28.075 18.5931C28.493 20.4951 30.161 21.8331 32.065 21.7991H38.565C39.357 21.7991 40 21.1431 40 20.3321V15.2691C39.998 14.4591 39.357 13.8021 38.565 13.7991H31.912C29.746 13.8071 27.997 15.6051 28 17.8201C28 18.0801 28.026 18.3391 28.075 18.5931Z" fill="#0091BD"/>
</svg>
