<svg width="20" height="20" viewBox="0 0 20 20" fill="none" xmlns="http://www.w3.org/2000/svg">
<path d="M17.2202 4.37755C17.3852 4.52437 17.4852 4.73068 17.4982 4.95115C17.5111 5.17163 17.436 5.38823 17.2894 5.55338L8.40107 15.5534C8.32289 15.6414 8.22695 15.7118 8.11958 15.76C8.01222 15.8082 7.89585 15.8332 7.77815 15.8332C7.66045 15.8332 7.54409 15.8082 7.43672 15.76C7.32935 15.7118 7.23342 15.6414 7.15524 15.5534L2.71107 10.5534C2.57283 10.3871 2.50465 10.1736 2.52092 9.95797C2.53719 9.74234 2.63663 9.54148 2.79825 9.39782C2.95987 9.25416 3.17101 9.17895 3.38705 9.18807C3.6031 9.19719 3.80714 9.28994 3.95607 9.44672L7.77774 13.7459L16.0444 4.44588C16.1913 4.28101 16.3977 4.18121 16.6182 4.1684C16.8387 4.15558 17.0552 4.23081 17.2202 4.37755Z" fill="#73D0B9"/>
</svg>
