<svg width="40" height="40" viewBox="0 0 40 40" fill="none" xmlns="http://www.w3.org/2000/svg">
<g clip-path="url(#clip0_2121_1738)">
<path d="M10.1749 10.802L6.70892 11.07C6.23625 11.105 5.77796 11.2482 5.36945 11.4885C4.96093 11.7288 4.61313 12.0599 4.35292 12.456L0.355921 18.501C0.157085 18.8003 0.0370641 19.1449 0.00699516 19.5029C-0.0230737 19.861 0.037784 20.2208 0.183921 20.549C0.480921 21.219 1.09092 21.687 1.81492 21.799L4.98792 22.29C5.73092 18.351 7.50792 14.422 10.1749 10.802ZM17.7099 35.012L18.2009 38.185C18.3129 38.909 18.7809 39.519 19.4509 39.815C19.7792 39.9609 20.139 40.0216 20.497 39.9915C20.8549 39.9614 21.1996 39.8416 21.4989 39.643L27.5439 35.647C27.9401 35.3868 28.2711 35.039 28.5114 34.6305C28.7517 34.222 28.8949 33.7637 28.9299 33.291L29.1979 29.825C25.5779 32.493 21.6489 34.27 17.7099 35.012ZM16.5159 32.812C16.6259 32.812 16.7369 32.803 16.8479 32.785C18.4979 32.509 20.0879 32.045 21.6059 31.435L8.56492 18.396C7.9449 19.9288 7.49227 21.524 7.21492 23.154C7.16281 23.4751 7.18787 23.804 7.28802 24.1135C7.38818 24.4231 7.56056 24.7043 7.79092 24.934L15.0679 32.21C15.4549 32.597 15.9779 32.812 16.5159 32.812ZM36.8099 17.735C40.0019 11.565 40.1199 5.045 39.9529 1.987C39.9256 1.48137 39.7124 1.00366 39.3543 0.645604C38.9963 0.287544 38.5186 0.074367 38.0129 0.0470025C37.4291 0.0154454 36.8446 -0.000227025 36.2599 2.48434e-06C32.8409 2.48434e-06 27.4299 0.518003 22.2659 3.19C18.1609 5.313 12.7779 9.988 9.60292 16.132C9.63992 16.161 9.67692 16.192 9.71092 16.227L23.7739 30.289C23.8079 30.324 23.8389 30.36 23.8689 30.398C30.0119 27.222 34.6869 21.839 36.8099 17.735ZM23.2589 8.456C24.3586 7.3589 25.8486 6.74277 27.4019 6.74277C28.9553 6.74277 30.4452 7.3589 31.5449 8.456C32.0906 8.99902 32.5232 9.64488 32.8175 10.3562C33.1119 11.0675 33.2623 11.8302 33.2599 12.6C33.2622 13.3699 33.1117 14.1326 32.8172 14.8439C32.5226 15.5553 32.0898 16.2011 31.5439 16.744C31.0001 17.2882 30.3542 17.7197 29.6432 18.0137C28.9323 18.3076 28.1703 18.4583 27.4009 18.457C25.9009 18.457 24.3999 17.887 23.2579 16.744C22.7118 16.2012 22.2789 15.5554 21.9841 14.8441C21.6894 14.1327 21.5388 13.37 21.5409 12.6C21.5389 11.8302 21.6896 11.0676 21.9843 10.3565C22.2791 9.64532 22.7119 8.9997 23.2579 8.457L23.2589 8.456Z" fill="white"/>
<path d="M24.9149 15.0859C25.5748 15.7442 26.4688 16.1139 27.4009 16.1139C28.333 16.1139 29.227 15.7442 29.8869 15.0859C30.2144 14.7603 30.4741 14.3728 30.6509 13.9461C30.8277 13.5194 30.9181 13.0618 30.9169 12.5999C30.9169 11.6599 30.5509 10.7779 29.8869 10.1139C29.5605 9.7872 29.1728 9.52817 28.746 9.35175C28.3192 9.17533 27.8617 9.085 27.3999 9.08594C26.4999 9.08594 25.5999 9.42794 24.9139 10.1139C24.5864 10.4396 24.3267 10.8271 24.1499 11.2538C23.9731 11.6805 23.8827 12.138 23.8839 12.5999C23.8839 13.5389 24.2499 14.4219 24.9139 15.0859H24.9149ZM1.19589 32.9639C1.49589 32.9639 1.79589 32.8489 2.02389 32.6209L5.84989 28.7939C5.96293 28.6861 6.05327 28.5567 6.11559 28.4135C6.17791 28.2702 6.21096 28.116 6.2128 27.9597C6.21464 27.8035 6.18522 27.6485 6.12629 27.5038C6.06735 27.3591 5.98008 27.2277 5.86961 27.1172C5.75914 27.0068 5.6277 26.9195 5.48301 26.8606C5.33833 26.8016 5.18332 26.7722 5.0271 26.774C4.87088 26.7759 4.71661 26.8089 4.57335 26.8713C4.43009 26.9336 4.30074 27.0239 4.19289 27.1369L0.366895 30.9629C0.203221 31.1269 0.0918131 31.3357 0.0467437 31.5629C0.00167421 31.7902 0.0249655 32.0257 0.113675 32.2397C0.202385 32.4537 0.352533 32.6367 0.545153 32.7654C0.737773 32.8941 0.964222 32.9639 1.19589 32.9639ZM9.3569 30.6429C9.24806 30.534 9.11882 30.4476 8.97658 30.3887C8.83433 30.3297 8.68187 30.2994 8.52789 30.2994C8.37392 30.2994 8.22146 30.3297 8.07921 30.3887C7.93697 30.4476 7.80773 30.534 7.69889 30.6429L0.342895 37.9999C0.12303 38.2198 -0.000488281 38.518 -0.000488281 38.8289C-0.000488281 39.1399 0.12303 39.4381 0.342895 39.6579C0.562759 39.8778 0.860959 40.0013 1.17189 40.0013C1.48283 40.0013 1.78103 39.8778 2.00089 39.6579L9.3569 32.2999C9.8139 31.8419 9.8139 31.1009 9.3569 30.6429ZM11.2059 34.1499L7.37989 37.9759C7.16863 38.1974 7.05236 38.4927 7.05596 38.7987C7.05956 39.1048 7.18273 39.3973 7.39915 39.6137C7.61557 39.8301 7.90806 39.9533 8.2141 39.9569C8.52014 39.9605 8.81545 39.8442 9.03689 39.6329L12.8629 35.8069C12.9759 35.6991 13.0663 35.5697 13.1286 35.4265C13.1909 35.2832 13.224 35.129 13.2258 34.9727C13.2276 34.8165 13.1982 34.6615 13.1393 34.5168C13.0804 34.3721 12.9931 34.2407 12.8826 34.1302C12.7721 34.0198 12.6407 33.9325 12.496 33.8736C12.3513 33.8146 12.1963 33.7852 12.0401 33.787C11.8839 33.7889 11.7296 33.8219 11.5864 33.8842C11.4431 33.9466 11.3137 34.0369 11.2059 34.1499Z" fill="#0091BD"/>
</g>
<defs>
<clipPath id="clip0_2121_1738">
<rect width="40" height="40" fill="white"/>
</clipPath>
</defs>
</svg>
