<svg width="40" height="40" viewBox="0 0 40 40" fill="none" xmlns="http://www.w3.org/2000/svg">
<g clip-path="url(#clip0_2121_1730)">
<path fill-rule="evenodd" clip-rule="evenodd" d="M26.485 5.475C26.485 9.917 30.092 13.518 34.54 13.518C35.03 13.516 35.519 13.468 36 13.378V29.323C36 36.031 32.043 40 25.325 40H10.693C3.957 40 0 36.031 0 29.323V14.713C0 8.003 3.957 4 10.693 4H26.626C26.532 4.486 26.483 4.98 26.485 5.475ZM22.3 25.794L28.016 18.418V18.383C28.2513 18.0669 28.3537 17.6713 28.3012 17.2808C28.2487 16.8902 28.0455 16.5357 27.735 16.293C27.5802 16.1734 27.4029 16.0862 27.2138 16.0364C27.0246 15.9866 26.8273 15.9754 26.6337 16.0032C26.4401 16.0311 26.2541 16.0976 26.0866 16.1987C25.9192 16.2999 25.7738 16.4336 25.659 16.592L20.84 22.79L15.354 18.47C15.1989 18.3491 15.0213 18.2604 14.8315 18.209C14.6417 18.1576 14.4436 18.1445 14.2487 18.1706C14.0538 18.1967 13.8661 18.2614 13.6965 18.3608C13.5269 18.4603 13.3789 18.5926 13.261 18.75L7.351 26.372C7.14389 26.631 7.0323 26.9534 7.035 27.285C7.01935 27.611 7.11207 27.9331 7.29869 28.2009C7.48531 28.4687 7.75533 28.6672 8.06662 28.7654C8.37791 28.8636 8.71296 28.856 9.01947 28.7438C9.32598 28.6315 9.58672 28.421 9.761 28.145L14.703 21.754L20.19 26.056C20.3445 26.1805 20.5225 26.2726 20.7133 26.3268C20.9041 26.3811 21.1039 26.3964 21.3008 26.3719C21.4976 26.3473 21.6875 26.2834 21.8592 26.184C22.0309 26.0845 22.1808 25.9516 22.3 25.793V25.794Z" fill="white"/>
<path d="M35 10C36.3261 10 37.5979 9.47322 38.5355 8.53553C39.4732 7.59785 40 6.32608 40 5C40 3.67392 39.4732 2.40215 38.5355 1.46447C37.5979 0.526784 36.3261 0 35 0C33.6739 0 32.4021 0.526784 31.4645 1.46447C30.5268 2.40215 30 3.67392 30 5C30 6.32608 30.5268 7.59785 31.4645 8.53553C32.4021 9.47322 33.6739 10 35 10Z" fill="#0091BD"/>
</g>
<defs>
<clipPath id="clip0_2121_1730">
<rect width="40" height="40" fill="white"/>
</clipPath>
</defs>
</svg>
